<?xml version="1.0" encoding="UTF-8" standalone="no"?>
<!DOCTYPE svg PUBLIC "-//W3C//DTD SVG 1.1//EN"
 "http://www.w3.org/Graphics/SVG/1.1/DTD/svg11.dtd">
<!-- Generated by graphviz version 2.38.0 (20140413.2041)
 -->
<!-- Title: controllers_diagram Pages: 1 -->
<svg width="664pt" height="747pt"
 viewBox="0.00 0.00 664.00 747.00" xmlns="http://www.w3.org/2000/svg" xmlns:xlink="http://www.w3.org/1999/xlink">
<g id="graph0" class="graph" transform="scale(1 1) rotate(0) translate(264 353.5)">
<title>controllers_diagram</title>
<polygon fill="none" stroke="none" points="-264,393.5 -264,-353.5 400,-353.5 400,393.5 -264,393.5"/>
<!-- _diagram_info -->
<g id="node1" class="node"><title>_diagram_info</title>
<text text-anchor="start" x="190" y="-245.6" font-family="Times,serif" font-size="13.00">Controllers diagram</text>
<text text-anchor="start" x="190" y="-231.6" font-family="Times,serif" font-size="13.00">Date: Apr 26 2020 &#45; 20:49</text>
<text text-anchor="start" x="190" y="-217.6" font-family="Times,serif" font-size="13.00">Migration version: 20191208225048</text>
<text text-anchor="start" x="190" y="-203.6" font-family="Times,serif" font-size="13.00">Generated by RailRoady 1.5.3</text>
<text text-anchor="start" x="190" y="-189.6" font-family="Times,serif" font-size="13.00">http://railroady.prestonlee.com</text>
</g>
<!-- StudentsController -->
<g id="node2" class="node"><title>StudentsController</title>
<path fill="none" stroke="black" d="M168,155C168,155 304,155 304,155 310,155 316,149 316,143 316,143 316,-121 316,-121 316,-127 310,-133 304,-133 304,-133 168,-133 168,-133 162,-133 156,-127 156,-121 156,-121 156,143 156,143 156,149 162,155 168,155"/>
<text text-anchor="middle" x="236" y="-117.8" font-family="Times,serif" font-size="14.00">StudentsController</text>
<polyline fill="none" stroke="black" points="156,-110 316,-110 "/>
<text text-anchor="start" x="164" y="-94.8" font-family="Times,serif" font-size="14.00">add_new_student</text>
<text text-anchor="start" x="164" y="-79.8" font-family="Times,serif" font-size="14.00">add_student</text>
<text text-anchor="start" x="164" y="-64.8" font-family="Times,serif" font-size="14.00">add_student_to_database</text>
<text text-anchor="start" x="164" y="-49.8" font-family="Times,serif" font-size="14.00">confirm_email</text>
<text text-anchor="start" x="164" y="-34.8" font-family="Times,serif" font-size="14.00">create</text>
<text text-anchor="start" x="164" y="-19.8" font-family="Times,serif" font-size="14.00">initForNewForceRequest</text>
<text text-anchor="start" x="164" y="-4.8" font-family="Times,serif" font-size="14.00">profile</text>
<text text-anchor="start" x="164" y="10.2" font-family="Times,serif" font-size="14.00">reset_password</text>
<text text-anchor="start" x="164" y="25.2" font-family="Times,serif" font-size="14.00">sent_reset_password_mail</text>
<text text-anchor="start" x="164" y="40.2" font-family="Times,serif" font-size="14.00">show</text>
<text text-anchor="start" x="164" y="55.2" font-family="Times,serif" font-size="14.00">signup</text>
<text text-anchor="start" x="164" y="70.2" font-family="Times,serif" font-size="14.00">update_password</text>
<text text-anchor="start" x="164" y="85.2" font-family="Times,serif" font-size="14.00">update_profile</text>
<text text-anchor="start" x="164" y="100.2" font-family="Times,serif" font-size="14.00">update_reset_password</text>
<polyline fill="none" stroke="black" points="156,108 316,108 "/>
<polyline fill="none" stroke="black" points="156,132 316,132 "/>
<text text-anchor="start" x="164" y="147.2" font-family="Times,serif" font-size="14.00">_layout</text>
</g>
<!-- StudentRequestsController -->
<g id="node3" class="node"><title>StudentRequestsController</title>
<path fill="none" stroke="black" d="M-91.5,389C-91.5,389 97.5,389 97.5,389 103.5,389 109.5,383 109.5,377 109.5,377 109.5,-337 109.5,-337 109.5,-343 103.5,-349 97.5,-349 97.5,-349 -91.5,-349 -91.5,-349 -97.5,-349 -103.5,-343 -103.5,-337 -103.5,-337 -103.5,377 -103.5,377 -103.5,383 -97.5,389 -91.5,389"/>
<text text-anchor="middle" x="3" y="-333.8" font-family="Times,serif" font-size="14.00">StudentRequestsController</text>
<polyline fill="none" stroke="black" points="-103.5,-326 109.5,-326 "/>
<text text-anchor="start" x="-95.5" y="-310.8" font-family="Times,serif" font-size="14.00">add_force_request</text>
<text text-anchor="start" x="-95.5" y="-295.8" font-family="Times,serif" font-size="14.00">add_new_force_request</text>
<text text-anchor="start" x="-95.5" y="-280.8" font-family="Times,serif" font-size="14.00">admin_log</text>
<text text-anchor="start" x="-95.5" y="-265.8" font-family="Times,serif" font-size="14.00">adminprivileges</text>
<text text-anchor="start" x="-95.5" y="-250.8" font-family="Times,serif" font-size="14.00">adminview</text>
<text text-anchor="start" x="-95.5" y="-235.8" font-family="Times,serif" font-size="14.00">cancel</text>
<text text-anchor="start" x="-95.5" y="-220.8" font-family="Times,serif" font-size="14.00">compare_request</text>
<text text-anchor="start" x="-95.5" y="-205.8" font-family="Times,serif" font-size="14.00">create</text>
<text text-anchor="start" x="-95.5" y="-190.8" font-family="Times,serif" font-size="14.00">createlimits</text>
<text text-anchor="start" x="-95.5" y="-175.8" font-family="Times,serif" font-size="14.00">deleteall</text>
<text text-anchor="start" x="-95.5" y="-160.8" font-family="Times,serif" font-size="14.00">edit</text>
<text text-anchor="start" x="-95.5" y="-145.8" font-family="Times,serif" font-size="14.00">edit_course_no</text>
<text text-anchor="start" x="-95.5" y="-130.8" font-family="Times,serif" font-size="14.00">edit_course_yes</text>
<text text-anchor="start" x="-95.5" y="-115.8" font-family="Times,serif" font-size="14.00">edit_courses_and_something_else</text>
<text text-anchor="start" x="-95.5" y="-100.8" font-family="Times,serif" font-size="14.00">edit_email_template</text>
<text text-anchor="start" x="-95.5" y="-85.8" font-family="Times,serif" font-size="14.00">edit_request</text>
<text text-anchor="start" x="-95.5" y="-70.8" font-family="Times,serif" font-size="14.00">email_the_status</text>
<text text-anchor="start" x="-95.5" y="-55.8" font-family="Times,serif" font-size="14.00">getAllLogs</text>
<text text-anchor="start" x="-95.5" y="-40.8" font-family="Times,serif" font-size="14.00">getSpreadsheetAllCourses</text>
<text text-anchor="start" x="-95.5" y="-25.8" font-family="Times,serif" font-size="14.00">getStudentInformationById</text>
<text text-anchor="start" x="-95.5" y="-10.8" font-family="Times,serif" font-size="14.00">getStudentInformationByUin</text>
<text text-anchor="start" x="-95.5" y="4.2" font-family="Times,serif" font-size="14.00">get_course_id_by_request_semester</text>
<text text-anchor="start" x="-95.5" y="19.2" font-family="Times,serif" font-size="14.00">get_email_template</text>
<text text-anchor="start" x="-95.5" y="34.2" font-family="Times,serif" font-size="14.00">get_position</text>
<text text-anchor="start" x="-95.5" y="49.2" font-family="Times,serif" font-size="14.00">get_section_id_by_course_id</text>
<text text-anchor="start" x="-95.5" y="64.2" font-family="Times,serif" font-size="14.00">hold</text>
<text text-anchor="start" x="-95.5" y="79.2" font-family="Times,serif" font-size="14.00">index</text>
<text text-anchor="start" x="-95.5" y="94.2" font-family="Times,serif" font-size="14.00">initForNewForceRequest</text>
<text text-anchor="start" x="-95.5" y="109.2" font-family="Times,serif" font-size="14.00">login</text>
<text text-anchor="start" x="-95.5" y="124.2" font-family="Times,serif" font-size="14.00">logout</text>
<text text-anchor="start" x="-95.5" y="139.2" font-family="Times,serif" font-size="14.00">multiupdate</text>
<text text-anchor="start" x="-95.5" y="154.2" font-family="Times,serif" font-size="14.00">multiupdate_without_notification</text>
<text text-anchor="start" x="-95.5" y="169.2" font-family="Times,serif" font-size="14.00">new</text>
<text text-anchor="start" x="-95.5" y="184.2" font-family="Times,serif" font-size="14.00">reject</text>
<text text-anchor="start" x="-95.5" y="199.2" font-family="Times,serif" font-size="14.00">sample_controller</text>
<text text-anchor="start" x="-95.5" y="214.2" font-family="Times,serif" font-size="14.00">set_request_limit</text>
<text text-anchor="start" x="-95.5" y="229.2" font-family="Times,serif" font-size="14.00">student_request_params</text>
<text text-anchor="start" x="-95.5" y="244.2" font-family="Times,serif" font-size="14.00">temporary_email</text>
<text text-anchor="start" x="-95.5" y="259.2" font-family="Times,serif" font-size="14.00">update</text>
<text text-anchor="start" x="-95.5" y="274.2" font-family="Times,serif" font-size="14.00">updateCourses</text>
<text text-anchor="start" x="-95.5" y="289.2" font-family="Times,serif" font-size="14.00">update_request</text>
<text text-anchor="start" x="-95.5" y="304.2" font-family="Times,serif" font-size="14.00">updaterequestbyadmin</text>
<text text-anchor="start" x="-95.5" y="319.2" font-family="Times,serif" font-size="14.00">uploadCourses</text>
<text text-anchor="start" x="-95.5" y="334.2" font-family="Times,serif" font-size="14.00">view_logs</text>
<polyline fill="none" stroke="black" points="-103.5,342 109.5,342 "/>
<polyline fill="none" stroke="black" points="-103.5,366 109.5,366 "/>
<text text-anchor="start" x="-95.5" y="381.2" font-family="Times,serif" font-size="14.00">_layout</text>
</g>
<!-- ApplicationController -->
<g id="node4" class="node"><title>ApplicationController</title>
<path fill="none" stroke="black" d="M168,285.5C168,285.5 280,285.5 280,285.5 286,285.5 292,279.5 292,273.5 292,273.5 292,204.5 292,204.5 292,198.5 286,192.5 280,192.5 280,192.5 168,192.5 168,192.5 162,192.5 156,198.5 156,204.5 156,204.5 156,273.5 156,273.5 156,279.5 162,285.5 168,285.5"/>
<text text-anchor="middle" x="224" y="207.7" font-family="Times,serif" font-size="14.00">ApplicationController</text>
<polyline fill="none" stroke="black" points="156,215.5 292,215.5 "/>
<text text-anchor="start" x="164" y="230.7" font-family="Times,serif" font-size="14.00">set_cache_buster</text>
<polyline fill="none" stroke="black" points="156,238.5 292,238.5 "/>
<polyline fill="none" stroke="black" points="156,262.5 292,262.5 "/>
<text text-anchor="start" x="164" y="277.7" font-family="Times,serif" font-size="14.00">_layout</text>
</g>
<!-- AdminsController -->
<g id="node5" class="node"><title>AdminsController</title>
<path fill="none" stroke="black" d="M-248,-0.5C-248,-0.5 -156,-0.5 -156,-0.5 -150,-0.5 -144,-6.5 -144,-12.5 -144,-12.5 -144,-111.5 -144,-111.5 -144,-117.5 -150,-123.5 -156,-123.5 -156,-123.5 -248,-123.5 -248,-123.5 -254,-123.5 -260,-117.5 -260,-111.5 -260,-111.5 -260,-12.5 -260,-12.5 -260,-6.5 -254,-0.5 -248,-0.5"/>
<text text-anchor="middle" x="-202" y="-108.3" font-family="Times,serif" font-size="14.00">AdminsController</text>
<polyline fill="none" stroke="black" points="-260,-100.5 -144,-100.5 "/>
<text text-anchor="start" x="-252" y="-85.3" font-family="Times,serif" font-size="14.00">addAdmin</text>
<text text-anchor="start" x="-252" y="-70.3" font-family="Times,serif" font-size="14.00">aes256_decrypt</text>
<text text-anchor="start" x="-252" y="-55.3" font-family="Times,serif" font-size="14.00">encrypt</text>
<polyline fill="none" stroke="black" points="-260,-47.5 -144,-47.5 "/>
<polyline fill="none" stroke="black" points="-260,-23.5 -144,-23.5 "/>
<text text-anchor="start" x="-252" y="-8.3" font-family="Times,serif" font-size="14.00">_layout</text>
</g>
</g>
</svg>
