<?xml version="1.0" encoding="UTF-8" standalone="no"?>
<!DOCTYPE svg PUBLIC "-//W3C//DTD SVG 1.1//EN"
 "http://www.w3.org/Graphics/SVG/1.1/DTD/svg11.dtd">
<!-- Generated by graphviz version 2.38.0 (20140413.2041)
 -->
<!-- Title: models_diagram Pages: 1 -->
<svg width="2435pt" height="442pt"
 viewBox="0.00 0.00 2435.00 442.00" xmlns="http://www.w3.org/2000/svg" xmlns:xlink="http://www.w3.org/1999/xlink">
<g id="graph0" class="graph" transform="scale(1 1) rotate(0) translate(4 438)">
<title>models_diagram</title>
<polygon fill="none" stroke="none" points="-4,4 -4,-438 2431,-438 2431,4 -4,4"/>
<!-- _diagram_info -->
<g id="node1" class="node"><title>_diagram_info</title>
<text text-anchor="start" x="8" y="-285.1" font-family="Times,serif" font-size="13.00">Models diagram</text>
<text text-anchor="start" x="8" y="-271.1" font-family="Times,serif" font-size="13.00">Date: Apr 26 2020 &#45; 20:49</text>
<text text-anchor="start" x="8" y="-257.1" font-family="Times,serif" font-size="13.00">Migration version: 20191208225048</text>
<text text-anchor="start" x="8" y="-243.1" font-family="Times,serif" font-size="13.00">Generated by RailRoady 1.5.3</text>
<text text-anchor="start" x="8" y="-229.1" font-family="Times,serif" font-size="13.00">http://railroady.prestonlee.com</text>
</g>
<!-- ApplicationRecord -->
<g id="node2" class="node"><title>ApplicationRecord</title>
<ellipse fill="none" stroke="black" cx="309" cy="-260.5" rx="77.1866" ry="18"/>
<text text-anchor="middle" x="309" y="-256.8" font-family="Times,serif" font-size="14.00">ApplicationRecord</text>
</g>
<!-- Log -->
<g id="node3" class="node"><title>Log</title>
<path fill="none" stroke="black" d="M416,-200C416,-200 636,-200 636,-200 642,-200 648,-206 648,-212 648,-212 648,-309 648,-309 648,-315 642,-321 636,-321 636,-321 416,-321 416,-321 410,-321 404,-315 404,-309 404,-309 404,-212 404,-212 404,-206 410,-200 416,-200"/>
<text text-anchor="middle" x="526" y="-305.8" font-family="Times,serif" font-size="14.00">Log</text>
<polyline fill="none" stroke="black" points="404,-298 648,-298 "/>
<text text-anchor="start" x="412" y="-282.8" font-family="Times,serif" font-size="14.00">id :integer</text>
<text text-anchor="start" x="412" y="-267.8" font-family="Times,serif" font-size="14.00">request_id :character varying</text>
<text text-anchor="start" x="412" y="-252.8" font-family="Times,serif" font-size="14.00">notes :text</text>
<text text-anchor="start" x="412" y="-237.8" font-family="Times,serif" font-size="14.00">timestamp :timestamp without time zone</text>
<text text-anchor="start" x="412" y="-222.8" font-family="Times,serif" font-size="14.00">created_at :timestamp without time zone</text>
<text text-anchor="start" x="412" y="-207.8" font-family="Times,serif" font-size="14.00">updated_at :timestamp without time zone</text>
</g>
<!-- Course -->
<g id="node4" class="node"><title>Course</title>
<path fill="none" stroke="black" d="M678,-185C678,-185 898,-185 898,-185 904,-185 910,-191 910,-197 910,-197 910,-324 910,-324 910,-330 904,-336 898,-336 898,-336 678,-336 678,-336 672,-336 666,-330 666,-324 666,-324 666,-197 666,-197 666,-191 672,-185 678,-185"/>
<text text-anchor="middle" x="788" y="-320.8" font-family="Times,serif" font-size="14.00">Course</text>
<polyline fill="none" stroke="black" points="666,-313 910,-313 "/>
<text text-anchor="start" x="674" y="-297.8" font-family="Times,serif" font-size="14.00">id :integer</text>
<text text-anchor="start" x="674" y="-282.8" font-family="Times,serif" font-size="14.00">course_id :character varying</text>
<text text-anchor="start" x="674" y="-267.8" font-family="Times,serif" font-size="14.00">course_name :character varying</text>
<text text-anchor="start" x="674" y="-252.8" font-family="Times,serif" font-size="14.00">semester :character varying</text>
<text text-anchor="start" x="674" y="-237.8" font-family="Times,serif" font-size="14.00">section_id :character varying</text>
<text text-anchor="start" x="674" y="-222.8" font-family="Times,serif" font-size="14.00">isValid :character varying</text>
<text text-anchor="start" x="674" y="-207.8" font-family="Times,serif" font-size="14.00">created_at :timestamp without time zone</text>
<text text-anchor="start" x="674" y="-192.8" font-family="Times,serif" font-size="14.00">updated_at :timestamp without time zone</text>
</g>
<!-- Major -->
<g id="node5" class="node"><title>Major</title>
<path fill="none" stroke="black" d="M940,-230C940,-230 1084,-230 1084,-230 1090,-230 1096,-236 1096,-242 1096,-242 1096,-279 1096,-279 1096,-285 1090,-291 1084,-291 1084,-291 940,-291 940,-291 934,-291 928,-285 928,-279 928,-279 928,-242 928,-242 928,-236 934,-230 940,-230"/>
<text text-anchor="middle" x="1012" y="-275.8" font-family="Times,serif" font-size="14.00">Major</text>
<polyline fill="none" stroke="black" points="928,-268 1096,-268 "/>
<text text-anchor="start" x="936" y="-252.8" font-family="Times,serif" font-size="14.00">id :integer</text>
<text text-anchor="start" x="936" y="-237.8" font-family="Times,serif" font-size="14.00">major_id :character varying</text>
</g>
<!-- Student -->
<g id="node6" class="node"><title>Student</title>
<path fill="none" stroke="black" d="M1126.5,-110C1126.5,-110 1413.5,-110 1413.5,-110 1419.5,-110 1425.5,-116 1425.5,-122 1425.5,-122 1425.5,-399 1425.5,-399 1425.5,-405 1419.5,-411 1413.5,-411 1413.5,-411 1126.5,-411 1126.5,-411 1120.5,-411 1114.5,-405 1114.5,-399 1114.5,-399 1114.5,-122 1114.5,-122 1114.5,-116 1120.5,-110 1126.5,-110"/>
<text text-anchor="middle" x="1270" y="-395.8" font-family="Times,serif" font-size="14.00">Student</text>
<polyline fill="none" stroke="black" points="1114.5,-388 1425.5,-388 "/>
<text text-anchor="start" x="1122.5" y="-372.8" font-family="Times,serif" font-size="14.00">id :integer</text>
<text text-anchor="start" x="1122.5" y="-357.8" font-family="Times,serif" font-size="14.00">uin :character varying</text>
<text text-anchor="start" x="1122.5" y="-342.8" font-family="Times,serif" font-size="14.00">lastname :character varying</text>
<text text-anchor="start" x="1122.5" y="-327.8" font-family="Times,serif" font-size="14.00">firstname :character varying</text>
<text text-anchor="start" x="1122.5" y="-312.8" font-family="Times,serif" font-size="14.00">minor :character varying</text>
<text text-anchor="start" x="1122.5" y="-297.8" font-family="Times,serif" font-size="14.00">password :character varying</text>
<text text-anchor="start" x="1122.5" y="-282.8" font-family="Times,serif" font-size="14.00">major :character varying</text>
<text text-anchor="start" x="1122.5" y="-267.8" font-family="Times,serif" font-size="14.00">classification :character varying</text>
<text text-anchor="start" x="1122.5" y="-252.8" font-family="Times,serif" font-size="14.00">name :character varying</text>
<text text-anchor="start" x="1122.5" y="-237.8" font-family="Times,serif" font-size="14.00">email :character varying</text>
<text text-anchor="start" x="1122.5" y="-222.8" font-family="Times,serif" font-size="14.00">created_at :timestamp without time zone</text>
<text text-anchor="start" x="1122.5" y="-207.8" font-family="Times,serif" font-size="14.00">updated_at :timestamp without time zone</text>
<text text-anchor="start" x="1122.5" y="-192.8" font-family="Times,serif" font-size="14.00">email_confirmed :boolean</text>
<text text-anchor="start" x="1122.5" y="-177.8" font-family="Times,serif" font-size="14.00">confirm_token :character varying</text>
<text text-anchor="start" x="1122.5" y="-162.8" font-family="Times,serif" font-size="14.00">email_confirm_sent_at :timestamp without time zone</text>
<text text-anchor="start" x="1122.5" y="-147.8" font-family="Times,serif" font-size="14.00">reset_password_confirm_token :character varying</text>
<text text-anchor="start" x="1122.5" y="-132.8" font-family="Times,serif" font-size="14.00">reset_sent_at :timestamp without time zone</text>
<text text-anchor="start" x="1122.5" y="-117.8" font-family="Times,serif" font-size="14.00">isVerified :boolean</text>
</g>
<!-- Limit -->
<g id="node7" class="node"><title>Limit</title>
<path fill="none" stroke="black" d="M1456,-177.5C1456,-177.5 1676,-177.5 1676,-177.5 1682,-177.5 1688,-183.5 1688,-189.5 1688,-189.5 1688,-331.5 1688,-331.5 1688,-337.5 1682,-343.5 1676,-343.5 1676,-343.5 1456,-343.5 1456,-343.5 1450,-343.5 1444,-337.5 1444,-331.5 1444,-331.5 1444,-189.5 1444,-189.5 1444,-183.5 1450,-177.5 1456,-177.5"/>
<text text-anchor="middle" x="1566" y="-328.3" font-family="Times,serif" font-size="14.00">Limit</text>
<polyline fill="none" stroke="black" points="1444,-320.5 1688,-320.5 "/>
<text text-anchor="start" x="1452" y="-305.3" font-family="Times,serif" font-size="14.00">id :integer</text>
<text text-anchor="start" x="1452" y="-290.3" font-family="Times,serif" font-size="14.00">classification :character varying</text>
<text text-anchor="start" x="1452" y="-275.3" font-family="Times,serif" font-size="14.00">Very High :integer</text>
<text text-anchor="start" x="1452" y="-260.3" font-family="Times,serif" font-size="14.00">High :integer</text>
<text text-anchor="start" x="1452" y="-245.3" font-family="Times,serif" font-size="14.00">Normal :integer</text>
<text text-anchor="start" x="1452" y="-230.3" font-family="Times,serif" font-size="14.00">Low :integer</text>
<text text-anchor="start" x="1452" y="-215.3" font-family="Times,serif" font-size="14.00">Very Low :integer</text>
<text text-anchor="start" x="1452" y="-200.3" font-family="Times,serif" font-size="14.00">created_at :timestamp without time zone</text>
<text text-anchor="start" x="1452" y="-185.3" font-family="Times,serif" font-size="14.00">updated_at :timestamp without time zone</text>
</g>
<!-- StudentRequestArchival -->
<g id="node8" class="node"><title>StudentRequestArchival</title>
<path fill="none" stroke="black" d="M1718.5,-95C1718.5,-95 1951.5,-95 1951.5,-95 1957.5,-95 1963.5,-101 1963.5,-107 1963.5,-107 1963.5,-414 1963.5,-414 1963.5,-420 1957.5,-426 1951.5,-426 1951.5,-426 1718.5,-426 1718.5,-426 1712.5,-426 1706.5,-420 1706.5,-414 1706.5,-414 1706.5,-107 1706.5,-107 1706.5,-101 1712.5,-95 1718.5,-95"/>
<text text-anchor="middle" x="1835" y="-410.8" font-family="Times,serif" font-size="14.00">StudentRequestArchival</text>
<polyline fill="none" stroke="black" points="1706.5,-403 1963.5,-403 "/>
<text text-anchor="start" x="1714.5" y="-387.8" font-family="Times,serif" font-size="14.00">id :integer</text>
<text text-anchor="start" x="1714.5" y="-372.8" font-family="Times,serif" font-size="14.00">request_id :character varying</text>
<text text-anchor="start" x="1714.5" y="-357.8" font-family="Times,serif" font-size="14.00">uin :character varying</text>
<text text-anchor="start" x="1714.5" y="-342.8" font-family="Times,serif" font-size="14.00">name :character varying</text>
<text text-anchor="start" x="1714.5" y="-327.8" font-family="Times,serif" font-size="14.00">major :character varying</text>
<text text-anchor="start" x="1714.5" y="-312.8" font-family="Times,serif" font-size="14.00">classification :character varying</text>
<text text-anchor="start" x="1714.5" y="-297.8" font-family="Times,serif" font-size="14.00">minor :character varying</text>
<text text-anchor="start" x="1714.5" y="-282.8" font-family="Times,serif" font-size="14.00">email :character varying</text>
<text text-anchor="start" x="1714.5" y="-267.8" font-family="Times,serif" font-size="14.00">phone :character varying</text>
<text text-anchor="start" x="1714.5" y="-252.8" font-family="Times,serif" font-size="14.00">expected_graduation :character varying</text>
<text text-anchor="start" x="1714.5" y="-237.8" font-family="Times,serif" font-size="14.00">request_semester :character varying</text>
<text text-anchor="start" x="1714.5" y="-222.8" font-family="Times,serif" font-size="14.00">course_id :character varying</text>
<text text-anchor="start" x="1714.5" y="-207.8" font-family="Times,serif" font-size="14.00">section_id :character varying</text>
<text text-anchor="start" x="1714.5" y="-192.8" font-family="Times,serif" font-size="14.00">notes :text</text>
<text text-anchor="start" x="1714.5" y="-177.8" font-family="Times,serif" font-size="14.00">state :character varying</text>
<text text-anchor="start" x="1714.5" y="-162.8" font-family="Times,serif" font-size="14.00">priority :character varying</text>
<text text-anchor="start" x="1714.5" y="-147.8" font-family="Times,serif" font-size="14.00">creation_date :timestamp without time zone</text>
<text text-anchor="start" x="1714.5" y="-132.8" font-family="Times,serif" font-size="14.00">last_updated :timestamp without time zone</text>
<text text-anchor="start" x="1714.5" y="-117.8" font-family="Times,serif" font-size="14.00">notes_to_student :text</text>
<text text-anchor="start" x="1714.5" y="-102.8" font-family="Times,serif" font-size="14.00">admin_notes :text</text>
</g>
<!-- StudentRequest -->
<g id="node9" class="node"><title>StudentRequest</title>
<path fill="none" stroke="black" d="M1993.5,-87.5C1993.5,-87.5 2226.5,-87.5 2226.5,-87.5 2232.5,-87.5 2238.5,-93.5 2238.5,-99.5 2238.5,-99.5 2238.5,-421.5 2238.5,-421.5 2238.5,-427.5 2232.5,-433.5 2226.5,-433.5 2226.5,-433.5 1993.5,-433.5 1993.5,-433.5 1987.5,-433.5 1981.5,-427.5 1981.5,-421.5 1981.5,-421.5 1981.5,-99.5 1981.5,-99.5 1981.5,-93.5 1987.5,-87.5 1993.5,-87.5"/>
<text text-anchor="middle" x="2110" y="-418.3" font-family="Times,serif" font-size="14.00">StudentRequest</text>
<polyline fill="none" stroke="black" points="1981.5,-410.5 2238.5,-410.5 "/>
<text text-anchor="start" x="1989.5" y="-395.3" font-family="Times,serif" font-size="14.00">id :integer</text>
<text text-anchor="start" x="1989.5" y="-380.3" font-family="Times,serif" font-size="14.00">request_id :character varying</text>
<text text-anchor="start" x="1989.5" y="-365.3" font-family="Times,serif" font-size="14.00">uin :character varying</text>
<text text-anchor="start" x="1989.5" y="-350.3" font-family="Times,serif" font-size="14.00">name :character varying</text>
<text text-anchor="start" x="1989.5" y="-335.3" font-family="Times,serif" font-size="14.00">major :character varying</text>
<text text-anchor="start" x="1989.5" y="-320.3" font-family="Times,serif" font-size="14.00">classification :character varying</text>
<text text-anchor="start" x="1989.5" y="-305.3" font-family="Times,serif" font-size="14.00">minor :character varying</text>
<text text-anchor="start" x="1989.5" y="-290.3" font-family="Times,serif" font-size="14.00">email :character varying</text>
<text text-anchor="start" x="1989.5" y="-275.3" font-family="Times,serif" font-size="14.00">phone :character varying</text>
<text text-anchor="start" x="1989.5" y="-260.3" font-family="Times,serif" font-size="14.00">expected_graduation :character varying</text>
<text text-anchor="start" x="1989.5" y="-245.3" font-family="Times,serif" font-size="14.00">request_semester :character varying</text>
<text text-anchor="start" x="1989.5" y="-230.3" font-family="Times,serif" font-size="14.00">course_id :character varying</text>
<text text-anchor="start" x="1989.5" y="-215.3" font-family="Times,serif" font-size="14.00">section_id :character varying</text>
<text text-anchor="start" x="1989.5" y="-200.3" font-family="Times,serif" font-size="14.00">notes :text</text>
<text text-anchor="start" x="1989.5" y="-185.3" font-family="Times,serif" font-size="14.00">state :character varying</text>
<text text-anchor="start" x="1989.5" y="-170.3" font-family="Times,serif" font-size="14.00">priority :character varying</text>
<text text-anchor="start" x="1989.5" y="-155.3" font-family="Times,serif" font-size="14.00">creation_date :timestamp without time zone</text>
<text text-anchor="start" x="1989.5" y="-140.3" font-family="Times,serif" font-size="14.00">last_updated :timestamp without time zone</text>
<text text-anchor="start" x="1989.5" y="-125.3" font-family="Times,serif" font-size="14.00">notes_to_student :text</text>
<text text-anchor="start" x="1989.5" y="-110.3" font-family="Times,serif" font-size="14.00">admin_notes :text</text>
<text text-anchor="start" x="1989.5" y="-95.3" font-family="Times,serif" font-size="14.00">admin_priority :character varying</text>
</g>
<!-- Audited::Audit -->
<g id="node11" class="node"><title>Audited::Audit</title>
<ellipse fill="none" stroke="black" cx="2110" cy="-18" rx="63.8893" ry="18"/>
<text text-anchor="middle" x="2110" y="-14.3" font-family="Times,serif" font-size="14.00">Audited::Audit</text>
</g>
<!-- StudentRequest&#45;&gt;Audited::Audit -->
<g id="edge1" class="edge"><title>StudentRequest&#45;&gt;Audited::Audit</title>
<path fill="none" stroke="#6e72e1" d="M2110,-79.1958C2110,-66.791 2110,-55.5332 2110,-46.1983"/>
<ellipse fill="none" stroke="#6e72e1" cx="2110" cy="-83.2743" rx="4" ry="4"/>
<polygon fill="#6e72e1" stroke="#6e72e1" points="2110,-46.1695 2114.5,-36.1695 2110,-41.1695 2110,-36.1695 2110,-36.1695 2110,-36.1695 2110,-41.1695 2105.5,-36.1696 2110,-46.1695 2110,-46.1695"/>
<text text-anchor="middle" x="2126.5" y="-57.8" font-family="Times,serif" font-size="14.00">audits</text>
</g>
<!-- Admin -->
<g id="node10" class="node"><title>Admin</title>
<path fill="none" stroke="black" d="M2269,-207.5C2269,-207.5 2415,-207.5 2415,-207.5 2421,-207.5 2427,-213.5 2427,-219.5 2427,-219.5 2427,-301.5 2427,-301.5 2427,-307.5 2421,-313.5 2415,-313.5 2415,-313.5 2269,-313.5 2269,-313.5 2263,-313.5 2257,-307.5 2257,-301.5 2257,-301.5 2257,-219.5 2257,-219.5 2257,-213.5 2263,-207.5 2269,-207.5"/>
<text text-anchor="middle" x="2342" y="-298.3" font-family="Times,serif" font-size="14.00">Admin</text>
<polyline fill="none" stroke="black" points="2257,-290.5 2427,-290.5 "/>
<text text-anchor="start" x="2265" y="-275.3" font-family="Times,serif" font-size="14.00">id :integer</text>
<text text-anchor="start" x="2265" y="-260.3" font-family="Times,serif" font-size="14.00">uin :character varying</text>
<text text-anchor="start" x="2265" y="-245.3" font-family="Times,serif" font-size="14.00">name :character varying</text>
<text text-anchor="start" x="2265" y="-230.3" font-family="Times,serif" font-size="14.00">password :character varying</text>
<text text-anchor="start" x="2265" y="-215.3" font-family="Times,serif" font-size="14.00">email :character varying</text>
</g>
</g>
</svg>
